<?xml version="1.0" standalone="no"?><!DOCTYPE svg PUBLIC "-//W3C//DTD SVG 1.1//EN" "http://www.w3.org/Graphics/SVG/1.1/DTD/svg11.dtd"><svg class="icon" width="200px" height="200.00px" viewBox="0 0 1024 1024" version="1.1" xmlns="http://www.w3.org/2000/svg"><path d="M512.000002 1024A511.971502 511.971502 0 1 1 512.000002 0 511.971502 511.971502 0 0 1 512.000002 1024z m0-255.985751a568.857335 568.857335 0 0 0-98.526516 8.532525C443.451817 896.80308 488.449313 960.003562 512.000002 960.003562c23.550689 0 68.547184-63.143485 98.526515-183.399791C578.67029 771.086078 545.676127 768.014249 512.000002 768.014249z m160.816048 23.322702c-15.587132 63.656457-36.406973 117.241474-60.696621 157.00526a447.292102 447.292102 0 0 0 193.126249-98.412522 542.405807 542.405807 0 0 0-132.429628-58.592738z m-321.632097 0a546.102602 546.102602 0 0 0-132.315635 58.592738 446.667137 446.667137 0 0 0 193.013257 98.298529c-24.347645-39.649793-44.997495-93.292807-60.696622-156.891267z m352.236393-247.282235a1232.258407 1232.258407 0 0 1-17.634018 184.423734c60.013659 17.123047 115.818553 42.664625 165.536785 75.202814a445.585197 445.585197 0 0 0 107.059041-259.625548H703.420346z m-637.802497 0A445.984175 445.984175 0 0 0 172.448902 803.56827a604.467353 604.467353 0 0 1 165.708776-74.975826 1236.695161 1236.695161 0 0 1-17.579021-184.537728H65.618849z m318.958246 0c1.478918 63.59846 7.338592 120.427297 15.928113 169.918541a637.518513 637.518513 0 0 1 222.991587-0.113993c8.589522-49.491245 14.335202-106.320082 15.929114-169.804548H384.575095z m466.747018-323.678983a605.264309 605.264309 0 0 1-165.536785 75.202814c9.954446 56.714843 16.155101 118.891382 17.634018 184.423734h254.961808A445.5292 445.5292 0 0 0 851.323113 220.374733z m-450.875902 89.708006c-8.532525 49.491245-14.221208 106.320082-15.871116 169.918542h254.73382a1141.12748 1141.12748 0 0 0-15.928113-169.804548 636.152589 636.152589 0 0 1-222.877594-0.113994z m-227.827318-89.595012A445.301213 445.301213 0 0 0 65.731843 480.002281h254.961807c1.478918-65.703343 7.679573-127.822885 17.634019-184.537728a604.410356 604.410356 0 0 1-165.707776-74.975826zM512.000002 64.053435c-23.550689 0-68.547184 63.143485-98.526516 183.399791C445.329713 252.970919 478.323876 256.042748 512.000002 256.042748c33.733122 0 66.613292-3.071829 98.526515-8.532525-29.978331-120.313303-74.975827-183.513785-98.526515-183.513785z m100.118427 11.66135c24.347645 39.763787 45.110489 93.349804 60.696621 157.005261a544.623684 544.623684 0 0 0 132.430628-58.478745 446.268159 446.268159 0 0 0-193.127249-98.526516z m-200.236854 0a446.667137 446.667137 0 0 0-193.013257 98.298529 538.139045 538.139045 0 0 0 132.315635 58.592738c15.700126-63.541463 36.406973-117.12748 60.696622-156.891267z" /></svg>