<?xml version="1.0" standalone="no"?><!DOCTYPE svg PUBLIC "-//W3C//DTD SVG 1.1//EN" "http://www.w3.org/Graphics/SVG/1.1/DTD/svg11.dtd"><svg class="icon" width="200px" height="200.00px" viewBox="0 0 1024 1024" version="1.1" xmlns="http://www.w3.org/2000/svg"><path d="M931.7 468.4L719.8 256.5c-23.5-23.5-42.8-15.6-42.8 17.7v146.6H300.6c-16.7 0-30.2 13.7-30.3 30.3v139.4c0 16.7 13.7 30.3 30.3 30.3h376.3v127.6c0 33.3 19.3 41.4 42.8 17.7l212-212c23.6-23.7 23.6-62.1 0-85.7z"  /><path d="M707.7 960.4H223.3c-70.5 0-127.6-57.3-127.6-127.6V190.4c0-70.5 57.3-127.6 127.6-127.6h484.5v66.6H223.3c-33.7 0-61 27.4-61 61v642.3c0 33.7 27.4 61 61 61h484.5l-0.1 66.7z"  /></svg>