<?xml version="1.0" standalone="no"?><!DOCTYPE svg PUBLIC "-//W3C//DTD SVG 1.1//EN" "http://www.w3.org/Graphics/SVG/1.1/DTD/svg11.dtd"><svg class="icon" width="200px" height="200.00px" viewBox="0 0 1024 1024" version="1.1" xmlns="http://www.w3.org/2000/svg"><path d="M256 725.333333c17.066667 0 29.866667 4.266667 42.666667 12.8 0 0 256 196.266667 256 192V89.6L298.666667 285.866667c-12.8 8.533333-25.6 12.8-42.666667 12.8H85.333333v426.666666h170.666667z m384-46.933333c72.533333-17.066667 128-85.333333 128-166.4s-55.466667-145.066667-128-166.4v332.8z m0-418.133333c119.466667 21.333333 213.333333 123.733333 213.333333 251.733333s-93.866667 230.4-213.333333 251.733333v166.4c0 55.466667-38.4 93.866667-85.333333 93.866667-12.8 0-21.333333-4.266667-34.133334-8.533333L256 810.666667H85.333333c-46.933333 0-85.333333-34.133333-85.333333-85.333334V298.666667c0-51.2 38.4-85.333333 85.333333-85.333334h170.666667L520.533333 8.533333c12.8-4.266667 21.333333-8.533333 34.133334-8.533333 46.933333 0 85.333333 38.4 85.333333 93.866667v166.4z m89.6-110.933334c12.8-21.333333 34.133333-29.866667 55.466667-21.333333 145.066667 72.533333 238.933333 217.6 238.933333 384s-89.6 311.466667-238.933333 384c-4.266667 4.266667-12.8 4.266667-17.066667 4.266667-17.066667 0-29.866667-8.533333-38.4-25.6-8.533333-21.333333 0-46.933333 21.333333-55.466667 115.2-59.733333 187.733333-174.933333 187.733334-307.2s-72.533333-247.466667-187.733334-307.2c-21.333333-8.533333-29.866667-34.133333-21.333333-55.466667z" /></svg>