<?xml version="1.0" standalone="no"?><!DOCTYPE svg PUBLIC "-//W3C//DTD SVG 1.1//EN" "http://www.w3.org/Graphics/SVG/1.1/DTD/svg11.dtd"><svg t="1605496438141" class="icon" viewBox="0 0 1024 1024" version="1.1" xmlns="http://www.w3.org/2000/svg" p-id="3807" width="128" height="128" xmlns:xlink="http://www.w3.org/1999/xlink"><defs><style type="text/css"></style></defs><path d="M274.227 102.4h475.546c21.845 0 42.189 11.605 54.477 31.13l140.015 221.866c17.066 27.102 14.882 63.283-5.394 87.655L561.152 897.98a62.532 62.532 0 0 1-98.167 0L85.129 443.05a75.708 75.708 0 0 1-5.462-87.654L219.75 133.53a64.717 64.717 0 0 1 54.477-31.13zM137.421 391.85c-1.366 2.117-1.092 6.008 0.205 7.578L512 850.193l374.374-450.765c1.366-1.57 1.57-5.461 0.205-7.646L746.974 170.667H277.026L137.421 391.85z m203.912-16.383h341.334v68.266H341.333v-68.266z" p-id="3808"></path></svg>
